<svg viewBox="0 0 12 12" width="60px" height="60px" xmlns="http://www.w3.org/2000/svg"><path fill-rule="evenodd" d="M 0,0 12,0 12,4 10,4 10,5 12,5 12,12 0,12 0,5 2,5 2,4 0,4z M 5,3 7,3 7,5 9,5 9,6 3,6 3,5 5,5z" fill="#3FA6DA"/><path fill-rule="evenodd" d="M 1,1 2,1 2,2 3,2 3,3 1,3z" fill="#ffffff"/><path fill-rule="evenodd" d="M 4,1 5,1 5,2 4,2z" fill="#ffffff"/><path fill-rule="evenodd" d="M 7,1 8,1 8,2 7,2z" fill="#ffffff"/><path fill-rule="evenodd" d="M 10,1 11,1 11,3 9,3 9,2 10,2z" fill="#ffffff"/><path fill-rule="evenodd" d="M 3,3 4,3 4,4 3,4z" fill="#ffffff"/><path fill-rule="evenodd" d="M 8,3 9,3 9,4 8,4z" fill="#ffffff"/><path fill-rule="evenodd" d="M 1,6 2,6 2,8 1,8z" fill="#ffffff"/><path fill-rule="evenodd" d="M 10,6 11,6 11,8 10,8z" fill="#ffffff"/><path fill-rule="evenodd" d="M 4,7 5,7 5,9 4,9z" fill="#ffffff"/><path fill-rule="evenodd" d="M 7,7 8,7 8,9 7,9z" fill="#ffffff"/><path fill-rule="evenodd" d="M 1,9 3,9 3,10 2,10 2,11 1,11z" fill="#ffffff"/><path fill-rule="evenodd" d="M 9,9 11,9 11,11 10,11 10,10 9,10z" fill="#ffffff"/><path fill-rule="evenodd" d="M 4,10 5,10 5,11 4,11z" fill="#ffffff"/><path fill-rule="evenodd" d="M 7,10 8,10 8,11 7,11z" fill="#ffffff"/></svg>